<svg width="300" height="60" viewBox="0 0 300 60" fill="none" xmlns="http://www.w3.org/2000/svg">
<path d="M287.265 7.52449C287.265 4.12453 290.002 1.33769 293.353 1.33769C294.973 1.33769 296.481 2.00653 297.654 3.12127C298.827 4.29175 299.441 5.85238 299.441 7.46875C299.441 9.08512 298.827 10.6458 297.654 11.8162C296.481 12.9867 294.973 13.6556 293.353 13.6556C290.002 13.6556 287.265 10.9244 287.265 7.52449ZM286.762 7.52449C286.762 11.2031 289.723 14.2129 293.409 14.2129C295.196 14.2129 296.816 13.5441 298.045 12.2621C299.274 10.9802 300 9.30807 300 7.52449C300 5.74091 299.33 4.0688 298.045 2.78685C296.76 1.5049 295.141 0.836054 293.409 0.836054C289.723 0.836054 286.762 3.84585 286.762 7.52449ZM290.896 11.4818H291.845V8.36054H293.968C294.303 8.36054 294.582 8.36054 294.805 8.47202C295.085 8.63923 295.252 8.97365 295.308 9.41954L295.42 10.6458V11.2031C295.476 11.3146 295.476 11.3703 295.532 11.4261H296.705V11.2589C296.537 11.2031 296.481 11.0359 296.425 10.813C296.369 10.7015 296.369 10.4785 296.369 10.1999L296.314 9.25233C296.314 8.80644 296.202 8.52775 296.09 8.36054C295.923 8.19333 295.699 8.02612 295.42 7.91465C295.755 7.74744 295.978 7.52449 296.146 7.2458C296.314 6.96712 296.369 6.6327 296.369 6.1868C296.369 5.35075 296.034 4.79338 295.42 4.45896C295.085 4.29175 294.638 4.23601 294.135 4.23601H290.951L290.896 11.4818ZM291.789 7.52449V5.01633H294.023C294.359 5.01633 294.638 5.07206 294.805 5.18354C295.141 5.35075 295.308 5.74091 295.308 6.24254C295.308 6.74417 295.196 7.07859 294.917 7.2458C294.694 7.41301 294.359 7.52449 293.912 7.52449H291.789ZM27.1458 16.7211L0 59.3041H18.544L44.6844 18.6161L27.1458 16.7211ZM138.913 15.7736V0H86.1292C78.9239 0.445896 75.7959 3.90159 73.45 6.35401C70.9365 8.97365 69.5401 14.4916 69.5401 14.4916V0.111474H41.4448C39.3223 0.111474 37.3115 1.00327 35.8034 3.12127C34.2394 5.18354 27.8161 15.7736 27.8161 15.7736H138.913ZM282.461 15.7736V0H225.991C218.842 0.445896 215.658 3.90159 213.312 6.35401C210.799 8.97365 209.402 14.4916 209.402 14.4916V15.7736H282.461ZM157.457 0.055737H141.65V15.7736H157.457V0.055737ZM209.235 0.055737H193.484V15.7736H209.235V0.055737ZM209.235 21.4587L193.707 20.5112V38.7372C193.707 38.7372 193.651 43.9765 188.568 43.9765H161.981C161.981 43.9765 157.457 43.5863 157.457 38.7929V18.0588L141.817 16.944V44.8682C144.331 58.2451 156.451 59.3041 156.451 59.3041C156.451 59.3041 157.68 59.3599 157.904 59.4156H193.93C193.93 59.4156 209.346 58.1894 209.346 43.3634L209.235 21.4587ZM53.4537 59.3041H127.295C140.142 56.7402 141.482 45.0355 141.482 45.0355C142.096 41.5798 141.761 38.7372 141.761 38.7372C141.37 36.3962 136.902 26.0292 127.295 25.1374C121.542 24.58 70.3221 20.5112 70.3221 20.5112C71.3275 25.639 73.6176 28.2586 75.1815 29.7078C78.7563 33.1077 84.3977 34.111 84.3977 34.111L123.888 37.3995C125.116 37.4552 127.406 37.7897 127.351 40.7994C127.351 41.1896 127.015 43.8092 124.111 43.8092H68.8699V20.3997L53.5096 19.285C53.4537 19.285 53.4537 59.3041 53.4537 59.3041ZM209.346 59.4156H265.872C280.06 58.5795 282.07 45.1469 282.07 45.1469C282.573 41.6355 282.182 38.7372 282.182 38.7372C281.791 35.5602 277.267 25.9734 267.604 25.0259C261.907 24.4685 210.352 21.4587 210.352 21.4587C211.86 26.7537 213.927 28.3701 215.491 29.8193C219.065 33.275 224.372 34.0553 224.372 34.0553C225.712 34.1668 264.252 37.3995 264.252 37.3995C265.481 37.4552 267.995 37.5667 267.995 40.5765C267.995 41.4683 267.548 42.4158 266.989 42.9175C266.989 42.9175 265.649 43.642 264.364 43.642H209.514L209.346 59.4156Z" fill="white"/>
</svg>
