<svg width="300" height="103" viewBox="0 0 300 103" fill="none" xmlns="http://www.w3.org/2000/svg">
<path d="M46.3908 49.9432H59.2922V68.0636C55.2667 69.357 50.184 70.0663 44.9005 70.0663C23.4877 70.0663 10.9026 51.7297 10.9026 33.8215C10.9026 16.2575 22.286 3.93733 38.1674 3.93733C48.217 3.93733 54.0644 7.34186 59.2959 12.0842V17.9962L69.105 8.187C62.9006 3.98935 53.9165 0 41.0752 0C12.8853 0 0 20.1676 0 36.7415C0 60.3329 17.1832 74.5444 38.7766 74.5444C49.2467 74.5444 58.5431 72.9462 69.2816 69.9582V51.237C69.2816 50.2797 69.7022 49.6228 70.3311 49.046L73.7196 45.6575H50.7087L46.3908 49.9432V49.9432Z" fill="white"/>
<path d="M104.186 25.3181C87.9597 25.3181 77.9062 37.1745 77.9062 49.7594C77.9062 60.6221 86.0055 73.5191 102.415 73.5191C118.2 73.5191 127.885 61.6395 127.885 48.8343C127.885 36.9062 118.421 25.3225 104.186 25.3225V25.3181V25.3181ZM101.493 28.7748C112.933 28.7748 118.028 43.6789 118.028 54.3092C118.028 70.1185 106.168 70.4309 104.75 70.4309C99.3227 70.4309 95.5295 67.1508 92.69 62.8486C90.1907 58.8837 87.7474 51.5175 87.7474 44.3198C87.7474 37.1501 90.0942 33.6494 93.7876 31.0739C96.8077 29.1433 99.6355 28.7748 101.49 28.7748H101.493Z" fill="white"/>
<path d="M210.252 25.314C196.081 25.314 188.414 34.2861 188.414 44.3036C188.414 51.9299 193.878 60.5335 205.149 60.5335H208C208 60.5335 207.224 62.42 207.22 64.2425C207.22 66.9305 208.185 68.44 210.235 70.7632C190.841 71.9448 183.047 79.7674 183.047 88.1747C183.047 95.537 190.097 102.783 204.912 102.783C222.452 102.783 231.536 93.0452 231.536 83.4887C231.536 76.7516 228.18 73.0587 219.68 66.6901C217.181 64.7475 216.696 63.5103 216.696 62.0563C216.696 59.9735 217.942 58.5952 218.398 58.0749C219.203 57.2257 220.597 56.2565 221.118 55.7918C223.974 53.3726 228.007 49.7921 228.007 42.6461C228.007 37.7435 225.968 33.5259 221.322 29.5765H226.994L231.256 25.3148H210.252V25.314ZM206.343 28.5022C208.915 28.5022 211.061 29.4116 213.328 31.2981C215.843 33.5652 219.861 39.6573 219.861 47.1955C219.861 55.3304 213.541 57.5574 210.12 57.5574C208.446 57.5574 206.44 57.0888 204.741 55.9273C200.968 53.4804 197.222 46.9671 197.222 39.2167C197.222 32.2233 201.388 28.5022 206.343 28.5022ZM211.955 73.8514C213.036 73.8514 213.813 73.9399 213.813 73.9399C213.813 73.9399 216.364 75.7624 218.147 77.1238C222.296 80.4042 224.884 82.9116 224.884 87.378C224.884 93.5183 219.188 98.3327 209.963 98.3327C199.838 98.3327 192.099 93.6184 192.099 85.9204C192.099 79.5434 197.403 74.0553 211.955 73.8514Z" fill="white"/>
<path d="M234.324 72.1131H253.778L256.741 69.1495L251.162 68.4526C249.66 68.2683 248.767 66.9706 248.767 65.7129V6.94973C248.767 5.79217 249.304 5.19936 249.696 4.82245L253.205 1.31372H236.615L232.297 5.63155H238.746V66.5015C238.746 67.3667 238.473 67.9554 237.888 68.5603L234.324 72.1131V72.1131Z" fill="white"/>
<path d="M280.138 25.3181C269.276 25.3181 257.736 33.5973 257.736 48.4613C257.736 60.7374 266.015 73.5191 281.484 73.5191C285.342 73.5191 288.518 73.0228 291.494 71.657C294.686 70.187 297.758 67.7998 300.001 64.7997C295.768 66.9346 292.315 68.3365 287.728 68.3365C279.013 68.3365 270.609 62.048 267.669 50.4884L298.459 38.0437C296.68 31.7031 291.666 25.3181 280.142 25.3181H280.138ZM278.127 28.7187C283.956 28.7187 288.169 33.5132 288.169 37.2662C288.169 38.4799 287.408 39.1208 285.902 39.7136L266.976 47.3678C266.976 47.3678 266.464 44.9847 266.464 42.4092C266.464 31.6067 274.275 28.7187 278.127 28.7187V28.7187Z" fill="white"/>
<path d="M159.242 25.3181C143.016 25.3181 132.963 37.1745 132.963 49.7594C132.963 60.6221 141.062 73.5191 157.472 73.5191C173.257 73.5191 182.942 61.6395 182.942 48.8343C182.942 36.9062 173.477 25.3225 159.242 25.3225V25.3181V25.3181ZM156.55 28.7748C167.99 28.7748 173.085 43.6789 173.085 54.3092C173.085 70.1185 161.225 70.4309 159.807 70.4309C154.379 70.4309 150.586 67.1508 147.747 62.8486C145.247 58.8837 142.804 51.5175 142.804 44.3198C142.804 37.1501 145.151 33.6494 148.844 31.0739C151.864 29.1433 154.692 28.7748 156.546 28.7748H156.55Z" fill="white"/>
</svg>
