<svg width="300" height="59" viewBox="0 0 300 59" fill="none" xmlns="http://www.w3.org/2000/svg">
<path d="M120.199 12.5952C114.9 12.5952 109.271 14.9154 105.629 19.8874V13.5901H93.3774V58.669H105.629V32.8148C105.629 28.1744 109.271 23.2024 115.894 23.2024C120.861 23.2024 126.159 26.8485 126.159 32.8148V58.3373H138.411V30.4946C138.742 20.219 131.126 12.5952 120.199 12.5952V12.5952ZM226.49 13.2584L215.232 44.0841L203.973 13.2584H190.066L208.609 58.3373H222.185L240.396 13.2584H226.49ZM80.1325 44.4157C74.8344 48.3934 71.854 49.0566 67.2184 49.0566C62.914 49.0566 59.6023 47.7307 57.2845 45.4105L88.7412 32.1521C88.0793 27.1801 86.0921 22.8708 83.4436 19.5563C79.1387 14.5843 73.1785 12.2642 65.5631 12.2642C51.9869 12.2642 41.7218 22.2081 41.7218 35.4666C41.7218 49.0566 51.9869 58.6695 66.8871 58.6695C75.1651 58.6695 83.7743 54.6918 87.748 50.0509L80.1325 44.4157V44.4157ZM56.2913 26.8485C58.2784 23.8651 61.5889 22.2081 65.8938 22.2081C70.1981 22.2081 73.8405 24.8599 75.4963 28.506L53.9734 37.4557C53.3115 33.1464 54.636 29.5003 56.2913 26.8485V26.8485ZM40.7285 47.0675H12.5829V0H0V58.3373H40.7285V47.0675ZM262.583 59C249.007 59 238.411 49.0566 238.411 35.7976C238.411 22.8702 249.006 12.5952 262.583 12.5952C276.158 12.5952 286.755 22.5392 286.755 35.7976C287.085 49.0566 276.489 59 262.583 59ZM262.583 23.2024C255.628 23.2024 250.662 28.506 250.662 35.7982C250.662 42.7587 255.96 48.3939 262.583 48.3939C269.536 48.3939 274.503 43.0903 274.503 35.7982C274.834 28.8371 269.535 23.2024 262.583 23.2024ZM167.549 59C153.974 59 143.377 49.0566 143.377 35.7976C143.377 22.8702 153.974 12.5952 167.549 12.5952C181.125 12.5952 191.721 22.5392 191.721 35.7976C191.721 49.056 181.126 59 167.549 59ZM167.549 23.2024C160.596 23.2024 155.628 28.506 155.628 35.7982C155.628 42.7587 160.927 48.3939 167.549 48.3939C174.503 48.3939 179.47 43.0903 179.47 35.7982C179.801 28.8371 174.503 23.2024 167.549 23.2024ZM288.741 53.0337H286.755V52.0395H292.053V53.0337H290.066V58.3373H288.741V53.0337ZM293.377 52.04H294.702L296.688 55.0235L298.675 52.04H300V58.6695H298.675V54.0286L296.688 57.012L294.702 54.0286V58.6695H293.377V52.04Z" fill="white"/>
</svg>
