<svg width="300" height="74" viewBox="0 0 300 74" fill="none" xmlns="http://www.w3.org/2000/svg">
<path d="M111.641 73.3744C105.293 72.6406 100.161 70.2983 96.0386 66.254C90.9409 61.2555 88.2349 54.5162 88.2349 46.8156C88.2349 31.3368 99.3947 19.9887 114.589 20.0134C118.595 20.0205 122.591 20.9535 126.118 22.7102C127.8 23.548 129.951 24.9784 131.088 26.0155C131.519 26.4088 131.913 26.7298 131.963 26.7298C132.012 26.7298 132.055 25.4194 132.055 23.8196V20.9059H138.634V72.7253H132.055V66.7267L131.454 67.2241C127.042 70.8751 123.025 72.653 117.701 73.3144C116.535 73.459 112.697 73.4978 111.641 73.3744V73.3744ZM117.708 66.5151C125.662 65.1817 131.177 59.5711 132.749 51.2109C133.114 49.2725 133.123 44.3957 132.767 42.4855C132.35 40.2579 131.791 38.5488 130.864 36.6616C128.126 31.0916 123.302 27.7158 116.875 26.8692C114.649 26.5746 111.399 26.7634 109.272 27.3084C103.071 28.8975 98.2872 33.3845 96.1217 39.6477C95.2226 42.2492 95.0407 43.4556 95.0407 46.8156C95.0407 49.3995 95.0883 50.0115 95.3886 51.3573C97.1903 59.3948 102.966 65.1288 110.657 66.5204C112.254 66.8079 115.974 66.8061 117.708 66.5151ZM54.2519 73.1662C49.8537 72.7059 45.7911 71.279 42.3166 68.9773C40.3736 67.6897 37.3355 64.6384 36.0107 62.6454C32.7748 57.7739 31.2221 51.9287 31.45 45.4716C31.6584 39.6018 33.2941 34.5892 36.47 30.0916C36.9328 29.4337 38.1215 28.0862 39.1072 27.0949C42.631 23.5604 46.8738 21.3221 51.9874 20.3009C54.047 19.89 58.6554 19.7348 60.798 20.0028C70.6684 21.2445 78.0624 27.8445 80.6024 37.6846C81.2207 40.0815 81.4998 42.1222 81.6075 45.0606L81.7011 47.6357H38.0897L38.1887 49.1667C38.6302 55.9731 42.5851 62.0704 48.4901 65.0476C51.2809 66.4551 53.9428 67.0671 57.29 67.0707C63.0307 67.0777 67.3671 65.3069 70.9793 61.4866C71.8819 60.5324 73.9185 57.8003 74.2701 57.0754C74.3142 56.9855 80.0107 60.7088 80.0107 60.8269C80.0107 61.1885 77.6774 64.2892 76.3897 65.635C71.6346 70.6088 65.7421 73.0604 58.1008 73.2421C56.7019 73.2773 54.9708 73.2421 54.2519 73.1662V73.1662ZM74.8512 41.1786C73.613 33.3933 68.2927 27.7493 60.7927 26.266C59.2136 25.9538 55.1316 25.9891 53.5401 26.3295C49.7601 27.139 46.6071 28.7723 43.9876 31.2804C41.2144 33.9366 39.3668 37.2719 38.3777 41.4026L38.2787 41.8136H74.9501L74.8512 41.1786ZM272.708 73.1556C261.25 72.0903 252.743 64.3368 250.438 52.8635C248.871 45.0554 250.325 36.9138 254.364 30.8959C258.233 25.1283 263.746 21.562 270.878 20.2039C272.892 19.8212 278.88 19.8229 280.784 20.2092C285.542 21.174 289.478 23.2429 292.754 26.5058C297.479 31.208 300 37.8592 300 45.6145V47.6357L278.277 47.6745L256.556 47.7116L256.595 48.9074C256.754 53.6114 258.98 58.5305 262.475 61.894C265.185 64.5026 268.472 66.1535 272.307 66.8361C274.012 67.1377 277.673 67.1359 279.388 66.8361C284.703 65.8942 288.552 63.2856 291.845 58.3894C292.315 57.691 292.754 57.1354 292.823 57.1548C293 57.2006 298.096 60.4742 298.313 60.6823C298.543 60.8992 297.14 63.0105 295.499 64.9189C290.259 71.0021 281.925 74.0146 272.708 73.1556ZM293.268 41.4026C293.268 41.1768 293.138 40.4484 292.979 39.7835C291.181 32.2945 285.885 27.3084 278.541 26.1848C275.741 25.7562 272.401 26.0508 269.567 26.9785C263.44 28.9839 258.703 34.0548 257.076 40.3443C256.913 40.974 256.781 41.5613 256.781 41.6495C256.781 41.7659 262.027 41.8136 275.025 41.8136H293.272L293.27 41.4026H293.268ZM0 46.7397V20.7577H31.1073V26.878L18.8806 26.9168L6.65564 26.9538L6.61678 49.8404L6.57968 72.7253H0V46.7397ZM150.149 36.2859V0H156.879V72.5754H150.149V36.2859ZM168.396 46.6639V20.7542H174.975L174.982 24.153L174.99 27.55L175.544 26.8798C177.372 24.6609 179.257 23.1 181.391 22.0365C183.934 20.7666 186.172 20.2127 189.332 20.0611C192.978 19.89 195.944 20.4544 198.83 21.8689C201.891 23.3681 204.094 25.5234 206.169 29.0527C206.311 29.2961 206.399 29.2291 206.938 28.4389C209.766 24.3029 213.973 21.5673 219.244 20.4385C221.333 19.9905 225.924 19.9446 227.948 20.3503C231.649 21.0964 234.564 22.5973 236.975 25.0031C239.541 27.5641 241.117 30.6489 242.085 35.0001L242.486 36.808L242.535 54.6926L242.583 72.5736H235.992V56.6115C235.992 46.6586 235.934 40.0674 235.837 39.1027C235.222 32.9718 232.045 28.5412 227.078 26.8868C225.129 26.2457 223.064 26.0327 221.024 26.2624C214.618 26.9556 210.477 30.4161 209.031 36.2859C208.723 37.5311 208.716 37.8945 208.665 55.0647L208.612 72.5736H202.045V56.9167C202.045 47.5581 201.983 40.5013 201.891 39.376C201.28 31.8483 197.141 27.0773 190.53 26.2748C184.498 25.5411 178.236 29.058 175.965 34.4587C175.014 36.711 175.069 35.5434 175.014 54.9183L174.965 72.5754H168.394V46.6657L168.396 46.6639Z" fill="white"/>
</svg>
