<svg width="300" height="65" viewBox="0 0 300 65" fill="none" xmlns="http://www.w3.org/2000/svg">
<path fill-rule="evenodd" clip-rule="evenodd" d="M160.388 45.2573C157.127 48.5574 153.227 50.216 148.707 50.216C145.052 50.216 141.945 49.4726 138.775 47.6354V40.0709C141.325 41.7959 144.53 43.4389 147.689 43.4389C154.283 43.4389 158.207 38.9128 158.207 32.4988C158.207 26.0796 154.148 21.4191 147.552 21.4191C144.606 21.4191 142.218 22.4755 140.353 24.5928C138.353 26.8865 137.32 30.1648 137.32 34.4996V64.3701H136.823C133.189 64.3701 130.244 61.4332 130.244 57.8089V33.3782C130.244 23.0112 136.598 14.6405 147.52 14.6405C152.912 14.6405 157.292 16.4799 160.613 20.1751C163.736 23.6276 165.283 28.0019 165.283 33.2661C165.283 37.9505 163.65 41.9551 160.388 45.2573V45.2573ZM236.993 45.0041C233.746 48.4819 229.567 50.216 224.5 50.216C219.151 50.216 214.793 48.3765 211.475 44.6821C208.355 41.187 206.807 36.8089 206.807 31.5926C206.807 22.3582 213.953 14.6405 223.356 14.6405C226.983 14.6405 230.132 15.4048 233.314 17.1448V24.7886C230.764 23.0627 227.56 21.4198 224.4 21.4198C217.807 21.4198 213.881 25.9451 213.881 32.3614C213.881 38.6902 218.035 43.4396 224.534 43.4396C227.478 43.4396 229.902 42.3391 231.842 40.1224C233.768 37.9207 234.77 34.6849 234.77 30.3382V6.56118C234.77 2.93617 237.715 0 241.348 0H241.845V31.4529C241.845 36.992 240.238 41.5262 236.993 45.0041V45.0041ZM256.973 11.2837C256.231 12.113 255.166 12.4948 253.868 12.4948C251.438 12.4948 249.701 10.7084 249.701 8.3042C249.701 5.84395 251.407 4.18311 253.867 4.18311C256.236 4.18311 258.034 5.93435 258.034 8.3042C258.034 9.47717 257.69 10.482 256.973 11.2837V11.2837ZM292.923 30.3374C292.923 27.5552 291.868 25.3527 289.748 23.6843C287.838 22.1826 285.453 21.4191 282.551 21.4191C276.147 21.4191 272.035 26.4121 272.035 32.5691C272.035 38.4937 276.393 43.4389 282.483 43.4389C286.719 43.4389 288.984 40.9711 291.4 37.8967V46.7605C290.17 47.6802 288.754 48.6829 287.309 49.2716C285.784 49.9066 283.963 50.216 281.86 50.216C271.675 50.216 264.96 41.8034 264.96 32.0812C264.96 27.089 266.515 22.9619 269.645 19.7433C272.966 16.3327 277.322 14.6405 282.655 14.6405C292.766 14.6405 300 20.4314 300 30.8948V49.5189H299.505C295.869 49.5189 292.923 46.5812 292.923 42.9562V30.3374ZM196.068 28.3381C195.174 25.5805 194.053 24.223 191.475 22.7871C185.343 19.3705 179.309 22.279 176.501 28.312L196.068 28.3381ZM190.669 50.1121C186.15 51.0699 181.715 50.331 177.389 47.9193C173.168 45.5689 170.342 42.0731 168.925 37.4537C166.062 28.111 171.929 17.6999 181.365 15.1792C186.043 13.93 190.528 14.4956 194.788 16.8699C201.865 20.8162 204.445 26.9194 203.994 34.7835L175.489 34.7267C175.909 37.9341 177.903 40.4437 180.706 42.0044C183.547 43.5883 186.158 43.9663 188.581 43.217C191.273 42.3742 193.456 40.1837 195.231 38.144L201.04 42.366C198.67 46.5947 195.446 49.0975 190.669 50.1121V50.1121ZM250.33 15.3391H257.404V49.5181H256.907C253.276 49.5181 250.33 46.5805 250.33 42.9555L250.33 15.3391ZM10.3545 49.5181C3.43425 49.5181 0 44.824 0 38.2666V13.3951C0 9.77154 2.946 6.83313 6.57975 6.83313H7.07625V15.3398H19.0305V22.1176H7.0755V39.0533C7.0755 41.9334 8.36475 42.7418 11.1233 42.7418H19.0305V49.5196L10.3545 49.5181ZM51.4448 45.1976C47.9498 48.5402 43.7483 50.2152 38.8673 50.2152C34.032 50.2152 29.8545 48.5387 26.3595 45.1976C22.8525 41.843 21.1042 37.5732 21.1042 32.4286C21.1042 22.3903 28.7888 14.6412 38.8673 14.6412C43.7048 14.6412 47.8935 16.3297 51.4102 19.6955C54.939 23.071 56.7022 27.328 56.7022 32.4286C56.7022 37.5732 54.9518 41.8423 51.4448 45.1976V45.1976ZM84.525 23.5633C83.487 25.2996 82.6822 26.5443 82.116 27.2967C81.492 28.1147 80.8755 28.7685 80.265 29.2197C85.182 30.8036 87.0135 34.2015 87.0135 39.2632V49.5181H86.517C82.8833 49.5181 79.9373 46.5805 79.9373 42.9555V39.9588C79.9373 36.6812 78.4635 34.4578 74.982 34.4578H68.5567V49.5181H68.0595C64.4265 49.5181 61.4827 46.5805 61.4827 42.9555V6.56118C61.4827 2.93617 64.4265 0 68.0603 0H68.5567V27.6112H70.6477C72.9457 27.6112 74.4555 26.8267 75.3225 25.3437L81.2655 15.3405L89.328 15.3331L84.525 23.5633ZM121.048 45.1983C117.552 48.5409 113.35 50.216 108.47 50.216C103.636 50.216 99.4582 48.5394 95.9617 45.1983C92.4547 41.8438 90.7065 37.574 90.7065 32.4293C90.7065 22.3911 98.3917 14.642 108.47 14.642C113.308 14.642 117.496 16.3305 121.013 19.6962C124.543 23.0717 126.305 27.3288 126.305 32.4293C126.305 37.574 124.555 41.843 121.048 45.1983ZM115.941 24.4748C113.991 22.4404 111.514 21.4191 108.47 21.4191C101.959 21.4191 98.061 26.1536 98.061 32.4293C98.061 38.6177 102.052 43.4389 108.47 43.4389C114.89 43.4389 118.879 38.6177 118.879 32.4293C118.879 29.1435 117.89 26.5069 115.942 24.4748H115.941ZM46.3387 24.4748C44.3887 22.4404 41.9123 21.4191 38.8688 21.4191C32.3573 21.4191 28.4595 26.1536 28.4595 32.4293C28.4595 38.6177 32.4495 43.4389 38.868 43.4389C45.288 43.4389 49.2765 38.6177 49.2765 32.4293C49.2765 29.1435 48.288 26.5069 46.3387 24.4748Z" fill="white"/>
</svg>
